<svg width="52" height="50" viewBox="0 0 52 50" fill="none" xmlns="http://www.w3.org/2000/svg">
<path d="M25.4313 0.0795818C25.1947 0.145839 24.8634 0.287821 24.7025 0.39194C24.3996 0.581247 1.33252 21.1305 0.717276 21.7552C0.225078 22.2664 -0.0494171 23.0331 0.00737499 23.7619C0.0830978 24.7652 0.594226 25.5224 1.52183 25.9862L2.10868 26.2797L6.7467 26.2418L6.84136 47.4253L7.13478 47.9458C7.49447 48.5895 8.21383 49.1195 8.92373 49.271C9.25502 49.3373 11.1386 49.3656 14.6597 49.3467C19.4019 49.3183 19.9414 49.2994 20.2632 49.1574C20.8974 48.8735 21.3423 48.438 21.6452 47.8323L21.9386 47.2549V33.7478H30.6372L30.694 47.2359L30.9591 47.7755C31.2619 48.3813 31.7163 48.8261 32.341 49.1196C32.7669 49.3183 32.89 49.3183 37.793 49.3183C42.3553 49.3183 42.8381 49.2994 43.1694 49.1574C43.8035 48.8735 44.2484 48.438 44.5513 47.8323L44.8447 47.2549V26.3743L47.4288 26.3459C50.3346 26.3175 50.5145 26.2797 51.2338 25.5603C51.7734 25.0113 51.9911 24.4623 51.9911 23.6199C51.9816 22.3137 52.8524 23.175 39.6482 11.2582C31.4702 3.87519 27.6557 0.49606 27.3149 0.316218C26.7091 0.00386189 26.0181 -0.0813292 25.4313 0.0795818Z" fill="#C8C1C9"/>
</svg>
