<svg width="52" height="52" viewBox="0 0 52 52" fill="none" xmlns="http://www.w3.org/2000/svg">
<path d="M26 0C40.3594 0 52 11.6406 52 26C52 40.3594 40.3594 52 26 52C11.6406 52 0 40.3594 0 26C0 11.6406 11.6406 0 26 0ZM23.7656 7.51562C22.9243 7.51562 22.2422 8.19769 22.2422 9.03906V22.6484H8.63281C7.79144 22.6484 7.10938 23.3305 7.10938 24.1719V28.2344C7.10938 29.0757 7.79144 29.7578 8.63281 29.7578H22.2422V43.3672C22.2422 44.2086 22.9243 44.8906 23.7656 44.8906H27.8281C28.6695 44.8906 29.3516 44.2086 29.3516 43.3672V29.7578H42.9609C43.8023 29.7578 44.4844 29.0757 44.4844 28.2344V24.1719C44.4844 23.3305 43.8023 22.6484 42.9609 22.6484H29.3516V9.03906C29.3516 8.19769 28.6695 7.51562 27.8281 7.51562H23.7656Z" fill="#C8C1C9"/>
</svg>
