<svg width="52" height="60" viewBox="0 0 52 60" fill="none" xmlns="http://www.w3.org/2000/svg">
<path d="M26 59.4284C30.0996 59.4284 33.4251 56.103 33.4251 51.9998H18.5749C18.5749 56.103 21.9004 59.4284 26 59.4284ZM51.0006 42.0514C48.7581 39.6418 44.5621 36.0169 44.5621 24.1428C44.5621 15.1241 38.2385 7.90444 29.712 6.1332V3.71427C29.712 1.6633 28.0498 0 26 0C23.9502 0 22.288 1.6633 22.288 3.71427V6.1332C13.7615 7.90444 7.43792 15.1241 7.43792 24.1428C7.43792 36.0169 3.24195 39.6418 0.999452 42.0514C0.303026 42.8 -0.0057233 43.695 8.02502e-05 44.5713C0.0128481 46.4749 1.50668 48.2856 3.72596 48.2856H48.274C50.4933 48.2856 51.9883 46.4749 51.9999 44.5713C52.0057 43.695 51.697 42.7989 51.0006 42.0514Z" fill="#C8C1C9"/>
</svg>
