<svg width="52" height="37" viewBox="0 0 52 37" fill="none" xmlns="http://www.w3.org/2000/svg">
<path d="M49.4 0H2.6C1.16431 0 0 1.16431 0 2.6V33.8C0 35.2357 1.16431 36.4 2.6 36.4H49.4C50.8357 36.4 52 35.2357 52 33.8V2.6C52 1.16431 50.8357 0 49.4 0ZM14.3 24.0403V25.35C14.3 25.7091 14.0091 26 13.65 26H12.35C11.9909 26 11.7 25.7091 11.7 25.35V24.0264C10.7827 23.9793 9.89056 23.6592 9.15119 23.1043C8.83431 22.8662 8.81806 22.3917 9.10487 22.1179L10.0596 21.2071C10.2846 20.9926 10.6194 20.9828 10.8826 21.1478C11.1971 21.3444 11.5537 21.45 11.9242 21.45H14.2082C14.7363 21.45 15.1669 20.969 15.1669 20.3783C15.1669 19.8949 14.8736 19.4691 14.4544 19.344L10.7981 18.2471C9.28769 17.7937 8.23225 16.3443 8.23225 14.7217C8.23225 12.7294 9.78006 11.1109 11.6992 11.0598V9.75C11.6992 9.39088 11.9901 9.1 12.3492 9.1H13.6492C14.0083 9.1 14.2992 9.39088 14.2992 9.75V11.0736C15.2165 11.1207 16.1086 11.44 16.848 11.9958C17.1649 12.2338 17.1811 12.7083 16.8943 12.9821L15.9396 13.8929C15.7146 14.1074 15.3798 14.1172 15.1166 13.9523C14.8021 13.7548 14.4454 13.65 14.0749 13.65H11.791C11.2629 13.65 10.8323 14.131 10.8323 14.7217C10.8323 15.2051 11.1256 15.6309 11.5448 15.756L15.2011 16.8529C16.7115 17.3063 17.7669 18.7558 17.7669 20.3783C17.7669 22.3714 16.2191 23.9891 14.3 24.0403ZM33.8 22.75C33.8 23.1091 33.5091 23.4 33.15 23.4H24.05C23.6909 23.4 23.4 23.1091 23.4 22.75V21.45C23.4 21.0909 23.6909 20.8 24.05 20.8H33.15C33.5091 20.8 33.8 21.0909 33.8 21.45V22.75ZM46.8 22.75C46.8 23.1091 46.5091 23.4 46.15 23.4H39.65C39.2909 23.4 39 23.1091 39 22.75V21.45C39 21.0909 39.2909 20.8 39.65 20.8H46.15C46.5091 20.8 46.8 21.0909 46.8 21.45V22.75ZM46.8 14.95C46.8 15.3091 46.5091 15.6 46.15 15.6H24.05C23.6909 15.6 23.4 15.3091 23.4 14.95V13.65C23.4 13.2909 23.6909 13 24.05 13H46.15C46.5091 13 46.8 13.2909 46.8 13.65V14.95Z" fill="#C8C1C9"/>
</svg>
