<svg width="52" height="46" viewBox="0 0 52 46" fill="none" xmlns="http://www.w3.org/2000/svg">
<path d="M30.0625 0H49.5625C50.9087 0 52 1.09129 52 2.4375V18.6875C52 20.0337 50.9087 21.125 49.5625 21.125H30.0625C28.7163 21.125 27.625 20.0337 27.625 18.6875V2.4375C27.625 1.09129 28.7163 0 30.0625 0ZM21.9375 0H2.4375C1.09129 0 0 1.09129 0 2.4375V18.6875C0 20.0337 1.09129 21.125 2.4375 21.125H21.9375C23.2837 21.125 24.375 20.0337 24.375 18.6875V2.4375C24.375 1.09129 23.2837 0 21.9375 0ZM0 26.8125V43.0625C0 44.4087 1.09129 45.5 2.4375 45.5H21.9375C23.2837 45.5 24.375 44.4087 24.375 43.0625V26.8125C24.375 25.4663 23.2837 24.375 21.9375 24.375H2.4375C1.09129 24.375 0 25.4663 0 26.8125ZM30.0625 45.5H49.5625C50.9087 45.5 52 44.4087 52 43.0625V26.8125C52 25.4663 50.9087 24.375 49.5625 24.375H30.0625C28.7163 24.375 27.625 25.4663 27.625 26.8125V43.0625C27.625 44.4087 28.7163 45.5 30.0625 45.5Z" fill="#C8C1C9"/>
</svg>
