<svg width="52" height="40" viewBox="0 0 52 40" fill="none" xmlns="http://www.w3.org/2000/svg">
<path d="M51.2803 21.5668L33.9461 38.901C32.3984 40.4486 29.7158 39.3653 29.7158 37.1469V27.2416H15.6833C14.311 27.2416 13.207 26.1376 13.207 24.7653V14.8601C13.207 13.4878 14.311 12.3838 15.6833 12.3838H29.7158V2.47851C29.7158 0.270462 32.3881 -0.823243 33.9461 0.724453L51.2803 18.0586C52.2399 19.0285 52.2399 20.5969 51.2803 21.5668ZM19.8105 38.3851V34.2579C19.8105 33.5769 19.2533 33.0197 18.5724 33.0197H9.90525C8.07897 33.0197 6.6035 31.5442 6.6035 29.718V9.90745C6.6035 8.08117 8.07897 6.6057 9.90525 6.6057H18.5724C19.2533 6.6057 19.8105 6.04853 19.8105 5.36754V1.24035C19.8105 0.559365 19.2533 0.00219449 18.5724 0.00219449H9.90525C4.43673 0.00219449 0 4.43892 0 9.90745V29.718C0 35.1865 4.43673 39.6232 9.90525 39.6232H18.5724C19.2533 39.6232 19.8105 39.066 19.8105 38.3851Z" fill="#C8C1C9"/>
</svg>
