<svg width="52" height="41" viewBox="0 0 52 41" fill="none" xmlns="http://www.w3.org/2000/svg">
<path d="M0 11.3774V9.75243C0 8.40622 1.09129 7.31493 2.4375 7.31493H39V2.43993C39 0.269845 41.6304 -0.814335 43.1611 0.716313L51.2861 8.84131C52.238 9.79326 52.238 11.3366 51.2861 12.2884L43.1611 20.4134C41.6362 21.9381 39 20.8691 39 18.6899V13.8149H2.4375C1.09129 13.8149 0 12.7236 0 11.3774ZM49.5625 26.8149H13V21.9399C13 19.7752 10.3734 18.6818 8.83888 20.2163L0.713883 28.3413C-0.237961 29.2933 -0.237961 30.8366 0.713883 31.7884L8.83888 39.9134C10.3652 41.4396 13 40.3671 13 38.1899V33.3149H49.5625C50.9087 33.3149 52 32.2236 52 30.8774V29.2524C52 27.9062 50.9087 26.8149 49.5625 26.8149Z" fill="#C8C1C9"/>
</svg>
