<svg width="52" height="52" viewBox="0 0 52 52" fill="none" xmlns="http://www.w3.org/2000/svg">
<path d="M51.3923 48.3311L38.4701 35.4089C41.9915 31.1021 43.7229 25.6065 43.3061 20.0589C42.8893 14.5113 40.3562 9.33616 36.2307 5.60388C32.1052 1.87159 26.703 -0.132273 21.1415 0.00678171C15.58 0.145836 10.2848 2.41717 6.35096 6.35096C2.41717 10.2848 0.145836 15.58 0.00678171 21.1415C-0.132273 26.703 1.87159 32.1052 5.60388 36.2307C9.33616 40.3562 14.5113 42.8893 20.0589 43.3061C25.6065 43.7229 31.1021 41.9915 35.4089 38.4701L48.3311 51.3923C48.7394 51.7866 49.2863 52.0049 49.8539 51.9999C50.4216 51.995 50.9645 51.7673 51.3659 51.3659C51.7673 50.9645 51.995 50.4216 51.9999 49.8539C52.0049 49.2863 51.7866 48.7394 51.3923 48.3311ZM21.7182 39.0373C18.2928 39.0373 14.9443 38.0215 12.0962 36.1185C9.24808 34.2154 7.02825 31.5106 5.71741 28.3459C4.40657 25.1813 4.06359 21.699 4.73185 18.3394C5.40011 14.9798 7.0496 11.8938 9.47172 9.47172C11.8938 7.0496 14.9798 5.40011 18.3394 4.73185C21.699 4.06359 25.1813 4.40657 28.3459 5.71741C31.5106 7.02825 34.2154 9.24808 36.1185 12.0962C38.0215 14.9443 39.0373 18.2928 39.0373 21.7182C39.0321 26.3099 37.2058 30.7121 33.9589 33.9589C30.7121 37.2058 26.3099 39.0321 21.7182 39.0373Z" fill="#2E2E2E"/>
</svg>
