<svg width="60" height="60" viewBox="0 0 60 60" fill="none" xmlns="http://www.w3.org/2000/svg">
<path d="M25.7261 0.21041C23.1569 0.564795 20.0892 1.43968 17.6085 2.52499C10.7202 5.54834 4.89495 11.6061 2.10416 18.6384C0.642323 22.3152 0 25.6929 0 29.713C0 35.815 1.63903 41.2194 5.02784 46.2694C8.54954 51.5187 13.5331 55.428 19.5798 57.6762C21.994 58.5843 25.9587 59.3927 27.93 59.3927H28.373L28.384 0.033217L27.631 0.0442915C27.2212 0.055366 26.3685 0.121813 25.7261 0.21041ZM17.0326 22.0162C19.8013 22.6031 22.1712 24.9731 22.7914 27.786C23.0793 29.0706 22.9797 30.8204 22.5478 31.9833C21.7836 34.021 20.4325 35.4717 18.4613 36.3688C14.7734 38.041 10.2661 36.402 8.50524 32.7585C7.96259 31.6289 7.75218 30.7208 7.75218 29.4361C7.75218 26.4238 9.43551 23.8213 12.2374 22.5145C13.6106 21.8722 15.449 21.6839 17.0326 22.0162Z" fill="#F4712A"/>
<path d="M14.0204 25.1835C11.5618 25.9587 10.3104 28.6387 11.2407 31.1194C11.5729 32.0275 12.78 33.2347 13.7103 33.578C16.9219 34.7851 20.2221 32.1937 19.7459 28.8381C19.4801 26.9554 18.0072 25.4161 16.1577 25.0727C15.2496 24.9066 14.8177 24.9288 14.0204 25.1835Z" fill="#F4712A"/>
<path d="M31.5956 59.3927H32.0718C32.3266 59.3927 33.1129 59.3263 33.8106 59.2377C40.6657 58.3849 46.8453 55.3173 51.5852 50.4113C53.8555 48.0635 55.4723 45.7489 56.912 42.8363C58.0195 40.5549 58.5068 39.2814 59.0605 37.0886C60.7438 30.466 60.1569 23.7327 57.3661 17.4424C55.2509 12.7025 51.4744 8.19516 47.0446 5.13858C42.9692 2.32565 37.4208 0.354385 32.7363 0.0664472L31.5956 0V59.3927ZM47.5651 22.2598C49.1266 23.0018 50.0569 24.3086 50.1676 25.9144C50.2562 27.1769 49.9683 28.2511 49.2817 29.1703L49.0713 29.4693L49.4146 29.9123C50.1787 30.8537 50.4113 32.6256 49.9683 33.9435C49.5475 35.2059 48.5951 36.247 47.4433 36.7121C46.8342 36.9557 46.7124 36.9668 42.3158 37L37.7974 37.0332V33.9213H41.8728C46.4466 33.9213 46.4909 33.9102 46.9117 33.1018C47.1775 32.5924 47.0889 32.0497 46.657 31.5624L46.3469 31.208L37.8528 31.0973V27.7749L46.3469 27.6642L46.657 27.3098C47.0668 26.8557 47.1664 26.3242 46.956 25.8037C46.6127 25.0063 46.657 25.0174 42.0057 24.9509L37.8528 24.8956L37.7863 21.839L46.8231 21.9054L47.5651 22.2598Z" fill="#2E2E2E"/>
</svg>
