<svg width="52" height="52" viewBox="0 0 52 52" fill="none" xmlns="http://www.w3.org/2000/svg">
<path d="M30.5283 34.6668H32.5C46.8932 34.6668 52 27.0834 52 20.5834C51.9979 18.8219 51.3826 17.116 50.2598 15.7588C49.1369 14.4015 47.5766 13.4774 45.8467 13.1453C46.1933 12.4451 46.4895 11.721 46.7328 10.9786C47.1111 9.71097 47.1854 8.37208 46.9497 7.07039C46.7141 5.7687 46.1751 4.54083 45.3765 3.48625C44.5707 2.39953 43.5205 1.51771 42.3107 0.912081C41.101 0.306456 39.7657 -0.00596395 38.4128 8.62261e-05H13.5872C12.2338 -0.00521287 10.8981 0.308208 9.68832 0.914982C8.47854 1.52176 7.4286 2.40484 6.6235 3.49275C5.82488 4.54733 5.28592 5.7752 5.05028 7.07689C4.81463 8.37857 4.88894 9.71747 5.26717 10.9851C5.51053 11.7275 5.80668 12.4516 6.15333 13.1518C4.4245 13.4837 2.86502 14.4068 1.74231 15.7628C0.619608 17.1187 0.00362625 18.823 0 20.5834C0 27.0834 5.10683 34.6668 19.5 34.6668H21.4717C21.5979 35.3245 21.6632 35.9925 21.6667 36.6622V43.3334C21.7039 43.9121 21.6173 44.4921 21.4127 45.0348C21.2081 45.5774 20.8902 46.0701 20.4801 46.4802C20.0701 46.8903 19.5773 47.2082 19.0347 47.4128C18.4921 47.6174 17.9121 47.704 17.3333 47.6668H13C12.4254 47.6668 11.8743 47.895 11.4679 48.3014C11.0616 48.7077 10.8333 49.2588 10.8333 49.8334C10.8333 50.4081 11.0616 50.9592 11.4679 51.3655C11.8743 51.7718 12.4254 52.0001 13 52.0001H39C39.5746 52.0001 40.1257 51.7718 40.5321 51.3655C40.9384 50.9592 41.1667 50.4081 41.1667 49.8334C41.1667 49.2588 40.9384 48.7077 40.5321 48.3014C40.1257 47.895 39.5746 47.6668 39 47.6668H34.6797C34.1001 47.7052 33.5189 47.6196 32.9751 47.4156C32.4312 47.2116 31.9371 46.8939 31.5257 46.4838C31.1144 46.0737 30.7952 45.5805 30.5896 45.0373C30.384 44.494 30.2966 43.9131 30.3333 43.3334V36.6601C30.337 35.9911 30.4022 35.3238 30.5283 34.6668ZM34.073 28.4896C37.7855 25.2007 40.9972 21.3868 43.6063 17.1688C43.8634 17.2752 44.1385 17.3311 44.4167 17.3334C45.2786 17.3334 46.1053 17.6758 46.7148 18.2853C47.3243 18.8948 47.6667 19.7215 47.6667 20.5834C47.6667 25.2981 43.6822 30.3334 32.5 30.3334H32.3787C32.8672 29.6529 33.4361 29.0338 34.073 28.4896ZM19.5 30.3334C8.31783 30.3334 4.33333 25.2981 4.33333 20.5834C4.33333 19.7215 4.67574 18.8948 5.28524 18.2853C5.89473 17.6758 6.72138 17.3334 7.58333 17.3334C7.86224 17.3313 8.13812 17.2754 8.39583 17.1688C11.0049 21.3868 14.2167 25.2007 17.9292 28.4896C18.5653 29.0339 19.1335 29.653 19.6213 30.3334H19.5Z" fill="#F4712A"/>
</svg>
