<svg width="52" height="63" viewBox="0 0 52 63" fill="none" xmlns="http://www.w3.org/2000/svg">
<path d="M46.6544 6.8458L26 0L5.3456 6.8458C3.78943 7.36168 2.43537 8.35478 1.47576 9.68405C0.516155 11.0133 -0.000214852 12.6111 6.70617e-08 14.2506V31.1766C6.70617e-08 50.739 23.92 61.542 24.9444 61.9918L25.8648 62.4L26.8216 62.0828C27.8512 61.7396 52 53.4768 52 31.1766V14.2506C52.0002 12.6111 51.4838 11.0133 50.5242 9.68405C49.5646 8.35478 48.2106 7.36168 46.6544 6.8458ZM27.1544 36.348C26.6999 36.8056 26.159 37.1683 25.5631 37.4151C24.9673 37.6619 24.3283 37.7879 23.6834 37.7858H23.5976C22.9395 37.7757 22.2903 37.6323 21.6892 37.3641C21.0882 37.096 20.5477 36.7088 20.1006 36.2258L14.105 29.9858L17.8568 26.3926L23.6912 32.4766L37.1618 19.006L40.8382 22.6824L27.1544 36.348Z" fill="#F4712A"/>
</svg>
