<svg width="52" height="52" viewBox="0 0 52 52" fill="none" xmlns="http://www.w3.org/2000/svg">
<path d="M6.0218 32.4567H0.069241V30.2929C0.036485 27.259 0.839967 24.2747 2.39154 21.6674C3.94312 19.0601 6.18284 16.9304 8.86501 15.5122C11.5073 14.2093 14.3689 13.4096 17.3038 13.1536C16.0214 14.7404 14.7354 16.4267 13.4457 18.2125C10.5411 22.7238 8.05607 27.4918 6.0218 32.4567ZM33.7874 38.5434C29.2766 41.4518 24.5086 43.9405 19.5433 45.9782V51.9308H21.7071C24.741 51.9635 27.7253 51.16 30.3326 49.6085C32.9399 48.0569 35.0696 45.8172 36.4878 43.135C37.7907 40.4927 38.5904 37.6311 38.8464 34.6962C37.2668 35.9729 35.5805 37.2553 33.7874 38.5434ZM52 6.47187C51.7122 15.8908 44.9309 25.2319 31.2666 35.0338C27.5482 37.4443 23.6254 39.5237 19.5433 41.2482V40.03C19.5336 38.0244 18.7326 36.1037 17.3144 34.6856C15.8963 33.2674 13.9756 32.4664 11.97 32.4567H10.7518C12.4783 28.3747 14.5607 24.4525 16.9749 20.7355C26.753 7.09288 36.0789 0.311585 45.4827 0C50.1694 0 52 1.91495 52 6.47187ZM39.0173 18.3921C39.0173 16.9575 38.4474 15.5816 37.4329 14.5671C36.4184 13.5526 35.0425 12.9827 33.6079 12.9827C32.1732 12.9827 30.7973 13.5526 29.7828 14.5671C28.7683 15.5816 28.1984 16.9575 28.1984 18.3921C28.1984 19.8268 28.7683 21.2027 29.7828 22.2172C30.7973 23.2317 32.1732 23.8016 33.6079 23.8016C35.0425 23.8016 36.4184 23.2317 37.4329 22.2172C38.4474 21.2027 39.0173 19.8268 39.0173 18.3921ZM3.04228 51.4655C5.4787 51.0328 11.3534 49.8254 13.3159 47.865C13.9187 47.2622 14.3969 46.5465 14.7232 45.7589C15.0494 44.9713 15.2173 44.1271 15.2173 43.2746C15.2173 42.422 15.0494 41.5778 14.7232 40.7902C14.3969 40.0026 13.9187 39.2869 13.3159 38.6841C12.7131 38.0813 11.9974 37.6031 11.2098 37.2768C10.4222 36.9506 9.57798 36.7827 8.72545 36.7827C7.00369 36.7827 5.35245 37.4666 4.13499 38.6841C2.1746 40.6466 0.965047 46.5213 0.534454 48.9577L0 52L3.04228 51.4655Z" fill="#F4712A"/>
</svg>
